<svg xmlns="http://www.w3.org/2000/svg" viewBox="0 0 800 650" role="img" aria-labelledby="title desc"><title id="title">Rocket launching in a glass dome</title><desc id="desc">A stylized enterprise rocket launches inside a crystal glass dome surrounded by flowers and reflective spheres.</desc><defs><radialGradient id="dome"><stop stop-color="#fff" stop-opacity=".9"/><stop offset=".45" stop-color="#dff8ff" stop-opacity=".25"/><stop offset=".8" stop-color="#e9dbff" stop-opacity=".16"/><stop offset="1" stop-color="#fff" stop-opacity=".06"/></radialGradient><linearGradient id="body" x1="0" y1="0" x2="1" y2="1"><stop stop-color="#fff"/><stop offset=".5" stop-color="#e9edf3"/><stop offset="1" stop-color="#cfd7e2"/></linearGradient><linearGradient id="flame" x1="0" y1="0" x2="0" y2="1"><stop stop-color="#fff9b0"/><stop offset=".35" stop-color="#ffc74f"/><stop offset=".75" stop-color="#ff7f40"/><stop offset="1" stop-color="#ff5d43" stop-opacity="0"/></linearGradient><linearGradient id="glass" x1="0" y1="0" x2="1" y2="1"><stop stop-color="#fff" stop-opacity=".92"/><stop offset=".55" stop-color="#d9f7ff" stop-opacity=".28"/><stop offset="1" stop-color="#e7d8ff" stop-opacity=".24"/></linearGradient><filter id="shadow" x="-30%" y="-30%" width="160%" height="180%"><feDropShadow dx="0" dy="20" stdDeviation="20" flood-color="#7d88a2" flood-opacity=".25"/></filter></defs><rect width="800" height="650" fill="none"/><ellipse cx="400" cy="560" rx="280" ry="65" fill="url(#glass)" stroke="#fff" stroke-width="6" filter="url(#shadow)"/><path d="M140 520C140 245 250 90 400 90s260 155 260 430" fill="url(#dome)" stroke="#fff" stroke-opacity=".9" stroke-width="8" filter="url(#shadow)"/><path d="M400 155c-70 60-90 145-90 250h180c0-105-20-190-90-250Z" fill="url(#body)" stroke="#6b6e77" stroke-width="6"/><path d="M400 115l-55 90h110Z" fill="#dc6d32"/><circle cx="400" cy="285" r="35" fill="#74c8f0" stroke="#d16c34" stroke-width="12"/><path d="M310 360l-75 110h80l42-75Z" fill="#d86631"/><path d="M490 360l75 110h-80l-42-75Z" fill="#d86631"/><path d="M355 410h90v42h-90Z" fill="#3a3d45"/><path d="M370 448c0 0-48 62 30 150 78-88 30-150 30-150Z" fill="url(#flame)" filter="url(#shadow)"/><g fill="#ffd6dd"><circle cx="180" cy="520" r="35"/><circle cx="245" cy="545" r="28"/><circle cx="620" cy="520" r="38"/><circle cx="560" cy="548" r="28"/></g><g fill="#fff4d4"><circle cx="120" cy="555" r="25"/><circle cx="675" cy="555" r="25"/></g><g fill="none" stroke="#8dab86" stroke-width="5"><path d="M175 535Q160 470 190 420"/><path d="M625 535Q645 470 610 420"/><path d="M245 545Q260 485 280 450"/><path d="M560 548Q545 485 525 452"/></g><g fill="url(#glass)" stroke="#fff" stroke-width="4"><circle cx="120" cy="590" r="45"/><circle cx="685" cy="585" r="55"/><circle cx="615" cy="600" r="25"/></g><g fill="#fff"><circle cx="260" cy="170" r="7"/><circle cx="555" cy="185" r="6"/><circle cx="590" cy="255" r="5"/></g></svg>